# xmcd
#
# Track frame offsets:
#   150
#   29403
#   58656
#   72280
#   83745
#   95656
#   108578
#   120430
#   132432
#   144987
#   156322
#   166943
#   180467
#   190697
#   201709
#   215325
#   227397
#   241152
#   253977
#   264961
#   279056
#   296201
#   309933
#   320704
#   332956
#
# Disc length: 4608 seconds
#
# Revision: 0
# Processed by: cddbd v1.5.1PL0 Copyright (c) Steve Scherf et al.
# Submitted via: GXTranscoder 2.0.1939
#
DISCID=7111fe19
DTITLE=Various Artist - Black Blues Wolf
DYEAR=1900
DGENRE=Blues
TTITLE0=Howlin Wolf - Back Door Man
TTITLE1=Howlin Wolf - Back Door Man2
TTITLE2=Muddy Waters - Rollin' and Tumblin
TTITLE3=John Lee Hooker - Crawlin' Kingsnake
TTITLE4=Jimmy Reed - Bright Lights, Big City
TTITLE5=Tommy Tucker - Hi Heel Sneakers
TTITLE6=Little Water - My Babe
TTITLE7=Cuck Berry - Around And Around
TTITLE8=Bo Diddley - I'm A Man
TTITLE9=Elmore James - Corning Home
TTITLE10=Willie Mabone - I'm Mad
TTITLE11=Ko KO Taylor - Wang Dang Doodle
TTITLE12=Jimmy Witherspoon - Kansas City
TTITLE13=Howlin' Wolf - Little Red Rooster
TTITLE14=Willie Dixon - Walking The Blues
TTITLE15=Jimmy Reed - Honest I Do
TTITLE16=Elmore James - Dust My Broom
TTITLE17=Muddy Waters - Hoochie Coochie Man
TTITLE18=John Lee Hooker - Boom Boom Boom
TTITLE19=Sonny Boy Williamson - Help Me
TTITLE20=Howlin Wolf - Soonful
TTITLE21=Eddie Taylor - Bad Boy
TTITLE22=J.B. Lenoir - Mama Talk To Your Daughter
TTITLE23=John Lee Hooker - I'm In The Mood
TTITLE24=Muddy Waters - I Can't Be Satisfied
EXTD=
EXTT0=
EXTT1=
EXTT2=
EXTT3=
EXTT4=
EXTT5=
EXTT6=
EXTT7=
EXTT8=
EXTT9=
EXTT10=
EXTT11=
EXTT12=
EXTT13=
EXTT14=
EXTT15=
EXTT16=
EXTT17=
EXTT18=
EXTT19=
EXTT20=
EXTT21=
EXTT22=
EXTT23=
EXTT24=
PLAYORDER=
